<svg xmlns="http://www.w3.org/2000/svg" width="251.999" height="67" viewBox="0 0 251.999 67"><defs><style>            .cls-1{fill:#65A300}.cls-2{fill:#fff}        </style></defs><g id="logo_pagarme-white" data-name="logo/pagarme-white" transform="translate(-.001)"><path id="hat" d="M1584.149 45.413h14.4c.024-.59.044-1.181.044-1.776A43.688 43.688 0 0 0 1555 0v14.384a29.25 29.25 0 0 1 29.205 29.254 27.64 27.64 0 0 1-.056 1.775z" class="cls-1" transform="translate(-1346.592)"></path><path id="pagarme" d="M-2160.23-10940.07a18.194 18.194 0 0 1-3.419-1.113 21.884 21.884 0 0 1-2.438-1.3 11.539 11.539 0 0 1-1.59-1.141l-.477-.477 2.863-4.24.4.4a11.16 11.16 0 0 0 1.11.873 13.97 13.97 0 0 0 1.857 1.141 13.435 13.435 0 0 0 5.645 1.3q4.348 0 6.282-1.934a7.567 7.567 0 0 0 1.937-5.593v-2.279a6.508 6.508 0 0 1-.32.425 11.314 11.314 0 0 1-1.006.98 9.943 9.943 0 0 1-1.725 1.245 10.736 10.736 0 0 1-2.546.954 13.284 13.284 0 0 1-3.425.421 13.446 13.446 0 0 1-9.571-3.5q-3.736-3.5-3.739-10.022a13.32 13.32 0 0 1 3.819-9.886 12.784 12.784 0 0 1 9.381-3.791 12.911 12.911 0 0 1 5.141.98 9.1 9.1 0 0 1 3.13 1.935l.849.956v-3.446h5.733v24.068q0 13.518-13.679 13.52h-.036a18.584 18.584 0 0 1-4.176-.476zm-2.232-30.193a8.954 8.954 0 0 0-2.2 6.284 8.754 8.754 0 0 0 2.251 6.227 7.776 7.776 0 0 0 5.965 2.413 8.333 8.333 0 0 0 6.2-2.358 8.548 8.548 0 0 0 2.331-6.281 8.564 8.564 0 0 0-2.386-6.284 8.335 8.335 0 0 0-6.2-2.411 7.677 7.677 0 0 0-5.961 2.409zm-69.536 30.088v-37.006h5.725v3.551c.072-.1.185-.256.344-.449a9.242 9.242 0 0 1 1.061-.986 10.568 10.568 0 0 1 1.8-1.221 13.113 13.113 0 0 1 2.65-.975 13.282 13.282 0 0 1 3.474-.452 12.387 12.387 0 0 1 9.356 3.791 13.846 13.846 0 0 1 3.631 9.993q0 6.524-3.631 10.232a12.781 12.781 0 0 1-9.568 3.714 13.042 13.042 0 0 1-3.394-.425 9.909 9.909 0 0 1-2.6-1.033 16.92 16.92 0 0 1-1.75-1.2 5.889 5.889 0 0 1-1.061-1.006l-.32-.424v13.891zm7.9-30.116a9.083 9.083 0 0 0-2.333 6.47 8.92 8.92 0 0 0 2.333 6.521 8.418 8.418 0 0 0 6.307 2.386 7.445 7.445 0 0 0 5.885-2.466 9.31 9.31 0 0 0 2.174-6.39 9.368 9.368 0 0 0-2.251-6.493 7.619 7.619 0 0 0-5.965-2.519 8.029 8.029 0 0 0-6.152 2.49zm201.76 20.655q-7.261 0-11.213-3.791t-3.951-10.417a13.661 13.661 0 0 1 4.031-10.205 13.954 13.954 0 0 1 10.186-3.95q6.678 0 10.469 4.135t3.794 11.393v1.378h-20.049a2.343 2.343 0 0 0 .08.534 5.853 5.853 0 0 0 .5 1.113 5.639 5.639 0 0 0 1.086 1.433 5.905 5.905 0 0 0 2.011 1.141 9.1 9.1 0 0 0 3.155.5 9.982 9.982 0 0 0 3.874-.771 9.145 9.145 0 0 0 2.7-1.562l.8-.8 4.348 5.086c-.1.141-.256.317-.449.535a11.69 11.69 0 0 1-1.38 1.141 15.578 15.578 0 0 1-2.331 1.457 15.593 15.593 0 0 1-3.314 1.141 18.341 18.341 0 0 1-4.278.5zm-3.5-21.209a4.522 4.522 0 0 0-1.7 1.166 8.16 8.16 0 0 0-.956 1.38 3.328 3.328 0 0 0-.422 1.166l-.108.477h11.508c-.036-.133-.069-.309-.107-.5a5.573 5.573 0 0 0-.449-1.113 5.577 5.577 0 0 0-.981-1.433 5.393 5.393 0 0 0-1.7-1.112 6.072 6.072 0 0 0-2.546-.5h-.121a6.391 6.391 0 0 0-2.421.468zm-65.125 19.746a4.744 4.744 0 0 1-1.433-3.395 4.742 4.742 0 0 1 1.433-3.394 4.857 4.857 0 0 1 3.5-1.378 4.877 4.877 0 0 1 3.5 1.378 4.731 4.731 0 0 1 1.433 3.394 4.733 4.733 0 0 1-1.433 3.395 5.115 5.115 0 0 1-3.5 1.378 5.115 5.115 0 0 1-3.504-1.379zm-35 1.351a13.333 13.333 0 0 1-9.571-3.555q-3.74-3.554-3.733-10.18a13.607 13.607 0 0 1 3.816-10.07 12.752 12.752 0 0 1 9.381-3.818 12.925 12.925 0 0 1 5.144.98 9.088 9.088 0 0 1 3.127 1.935l.848.956v-3.395h5.725v26.722h-5.725v-3.659c-.072.105-.177.257-.32.449a7.542 7.542 0 0 1-1.009.981 10.673 10.673 0 0 1-1.722 1.221 11.447 11.447 0 0 1-2.546.98 12.669 12.669 0 0 1-3.358.452zm-5.381-20.253a9.2 9.2 0 0 0-2.2 6.413 9.205 9.205 0 0 0 2.251 6.417 7.661 7.661 0 0 0 5.965 2.491 8.265 8.265 0 0 0 6.229-2.387 8.983 8.983 0 0 0 2.306-6.521 8.776 8.776 0 0 0-2.383-6.413 8.31 8.31 0 0 0-6.2-2.441 7.636 7.636 0 0 0-5.967 2.442zm-56.857 20.253a13.328 13.328 0 0 1-9.571-3.555q-3.736-3.554-3.739-10.18a13.608 13.608 0 0 1 3.819-10.07 12.752 12.752 0 0 1 9.381-3.818 12.926 12.926 0 0 1 5.144.98 9.084 9.084 0 0 1 3.127 1.935l.849.956v-3.395h5.725l.006 26.722h-5.728v-3.659a11.38 11.38 0 0 1-.317.449 7.637 7.637 0 0 1-1.009.981 10.8 10.8 0 0 1-1.722 1.221 11.534 11.534 0 0 1-2.548.98 12.649 12.649 0 0 1-3.356.452zm-5.386-20.253a9.183 9.183 0 0 0-2.2 6.413 9.216 9.216 0 0 0 2.248 6.417 7.653 7.653 0 0 0 5.965 2.491 8.266 8.266 0 0 0 6.229-2.387 8.959 8.959 0 0 0 2.306-6.521 8.778 8.778 0 0 0-2.386-6.413 8.3 8.3 0 0 0-6.2-2.441 7.632 7.632 0 0 0-5.962 2.442zm146.065 19.839v-16.7q0-4.191-3.075-4.187-3.818 0-3.819 5.565v15.323h-8.056v-16.7q0-4.191-3.075-4.187-3.818 0-3.819 5.565v15.323h-8.059v-27.253h8.059v3.554c.072-.107.16-.248.27-.424a8.378 8.378 0 0 1 .766-.956 8.088 8.088 0 0 1 1.353-1.218 7.64 7.64 0 0 1 2.011-.956 8.546 8.546 0 0 1 2.7-.422 8.6 8.6 0 0 1 2.705.4 6.313 6.313 0 0 1 1.934.953 9.282 9.282 0 0 1 1.193 1.086 4.583 4.583 0 0 1 .689.956l.16.372c.072-.108.168-.24.292-.4a11.192 11.192 0 0 1 .873-.9 9.153 9.153 0 0 1 1.485-1.165 8.62 8.62 0 0 1 2.121-.9 9.629 9.629 0 0 1 2.755-.4q8.592 0 8.59 9.919v17.762zm-59.2 0v-26.777h5.725v4.827a3.074 3.074 0 0 1 .24-.584 13.272 13.272 0 0 1 .848-1.323 8.344 8.344 0 0 1 1.482-1.645 8.087 8.087 0 0 1 2.309-1.245 7.567 7.567 0 0 1 3.179-.449l-.477 6.2a6.578 6.578 0 0 0-5.565 1.722 7.6 7.6 0 0 0-2.011 5.6v13.68z" class="cls-2" transform="translate(2232 11006.594)"></path></g></svg>